<svg width="15" height="16" viewBox="0 0 15 16" fill="none" xmlns="http://www.w3.org/2000/svg">
<path d="M11.3643 10.9974L14.7791 14.9997L13.6041 16.0002L10.1985 12.0071C9.09696 12.7415 7.88219 13.1087 6.55418 13.1087C5.66681 13.1087 4.8177 12.9358 4.00686 12.59C3.19601 12.2443 2.49836 11.7792 1.9139 11.1947C1.32944 10.6103 0.864344 9.91266 0.518609 9.10179C0.172873 8.29092 -6.41864e-06 7.44181 -3.05151e-05 6.55446C-5.46115e-05 5.66711 0.172825 4.818 0.518609 4.00713C0.864392 3.19626 1.32949 2.49861 1.9139 1.91417C2.49831 1.32974 3.19596 0.864643 4.00686 0.518883C4.81775 0.173124 5.66686 0.000244141 6.55418 0.000244141C7.44151 0.000244141 8.29062 0.173124 9.10151 0.518883C9.91241 0.864643 10.6101 1.32974 11.1945 1.91417C11.7789 2.49861 12.244 3.19626 12.5898 4.00713C12.9355 4.818 13.1084 5.66711 13.1084 6.55446C13.1084 7.11747 13.038 7.66824 12.8973 8.20677C12.7565 8.74531 12.5561 9.24713 12.296 9.71223C12.0359 10.1773 11.7253 10.6057 11.3643 10.9974H11.3643ZM6.55422 11.5665C7.2335 11.5665 7.88219 11.4333 8.50028 11.1671C9.11838 10.9009 9.65079 10.5444 10.0975 10.0977C10.5442 9.65099 10.9007 9.11858 11.1669 8.50049C11.4331 7.88239 11.5663 7.2337 11.5663 6.55442C11.5663 5.87514 11.4331 5.22646 11.1669 4.60836C10.9007 3.99026 10.5442 3.45784 10.0975 3.01109C9.65079 2.56434 9.11838 2.20787 8.50028 1.94168C7.88219 1.67549 7.2335 1.54239 6.55422 1.54239C5.87494 1.54239 5.22625 1.67549 4.60816 1.94168C3.99006 2.20787 3.45764 2.56436 3.01089 3.01113C2.56414 3.4579 2.20767 3.99031 1.94148 4.60836C1.67529 5.22641 1.54219 5.8751 1.54219 6.55442C1.54219 7.23375 1.67529 7.88244 1.94148 8.50049C2.20767 9.11854 2.56415 9.65095 3.01093 10.0977C3.4577 10.5445 3.99011 10.901 4.60816 11.1671C5.22621 11.4333 5.87489 11.5664 6.55422 11.5665Z" fill="white"/>
</svg>
